<svg xmlns="http://www.w3.org/2000/svg" viewBox="0 0 190.95 83.95"><defs><style>.cls-1{fill:none;stroke:#fff;stroke-miterlimit:10;stroke-width:0.95px;}.cls-2{fill:#fff;}</style></defs><title>Asset 2</title><g id="Layer_2" data-name="Layer 2"><g id="Layer_2-2" data-name="Layer 2"><rect class="cls-1" x="0.47" y="0.47" width="190" height="83"/><path class="cls-2" d="M43.94,39H19V9.54h24.9c4.59,0,9.35,1.79,9.35,6.86a5.77,5.77,0,0,1-4.41,5.51c3.8.61,6.95,3.14,6.95,7.34C55.83,36,50.1,39,43.94,39Zm-.52-25.56H23.54v7.21h20c2.79,0,5.19-1.27,5.19-3.71C48.7,14.26,46.17,13.43,43.42,13.43Zm-.26,11.06H23.54V35.1H43.59c4.24,0,7.56-1.79,7.56-5.59C51.15,26.45,48.84,24.49,43.16,24.49Z"/><path class="cls-2" d="M74.52,39,67.84,26.5H65.57V39H61.46V9.54h8.17c5.24,0,8.91,3,8.91,8.26a8,8,0,0,1-6.64,7.91L79.29,39ZM69.06,13.26H65.57V23H67.8c3.71,0,6.55-1.4,6.55-5.16C74.35,14.87,72.12,13.26,69.06,13.26Z"/><path class="cls-2" d="M84.27,39V9.54h4.1V39Z"/><path class="cls-2" d="M103.49,13.3V39H99.38V13.3h-6.6V9.54h17.31V13.3Z"/><path class="cls-2" d="M132.15,39.56h-.61L118.61,21V39H114.5V9h.61L128,27.46V9.54h4.15Z"/><path class="cls-2" d="M139.49,39V9.54h14.86V13.3H143.6v7.6h10.75v3.59H143.6V35.23h10.75V39Z"/><path class="cls-2" d="M163.87,39h-4.55L164,27.85,157,9.54h4.46l4.76,12.85,5.11-12.85h4.41Z"/><path class="cls-2" d="M37.52,75C27.21,75,17.2,70.6,17.2,59.46,17.2,48.06,28,44,37.52,44a36.64,36.64,0,0,1,16,3.15l-1,3.8a36.18,36.18,0,0,0-14.55-3c-9,0-15.95,3.72-15.95,11.63S29,71.09,37.87,71.09a33.61,33.61,0,0,0,10.92-1.71V59.94h4.5V72A38.24,38.24,0,0,1,37.52,75Z"/><path class="cls-2" d="M73.91,75c-7.43,0-9.35-8.87-9.35-15.51S66.61,44,73.91,44s9.35,8.74,9.35,15.51C83.26,66,81.21,75,73.91,75Zm0-27.26c-4.41,0-5.15,6.77-5.15,11.75s.78,11.76,5.15,11.76,5.16-6.82,5.16-11.76C79.07,54.09,78.28,47.71,73.91,47.71Z"/><path class="cls-2" d="M112.62,74.19V54.79l-6.77,9.09h-.31l-6.68-9V74.19H94.75V44.26h.61l10.4,13.54,10.4-13.54h.61V74.19Z"/><path class="cls-2" d="M130.05,74.19V44.74h14.86V48.5H134.16v7.6h10.75v3.58H134.16V70.43h10.75v3.76Z"/><path class="cls-2" d="M160,70.39h9.83v3.8H154.08v-.44L164.22,48.5h-9.88V44.74h15.78v.57Z"/></g></g></svg>