<svg xmlns="http://www.w3.org/2000/svg" viewBox="0 0 538.77 484.58"><defs><style>.cls-1,.cls-2{fill:none;stroke:#f55;stroke-miterlimit:10;}.cls-1{stroke-width:1.92px;}.cls-2{stroke-width:2.38px;}.cls-3{fill:#eaeaea;}</style></defs><title>Asset 1</title><g id="Layer_2" data-name="Layer 2"><g id="Layer_2-2" data-name="Layer 2"><path class="cls-1" d="M13.89,11.6,24.53,1H52.36L63,11.6V40.14H46V19L42.44,15.5h-8L30.91,19v98.57l3.55,3.54h8L46,117.61V80.73H37.47V65.49H63v59.56L52.36,135.69H24.53L13.89,125.05Z"/><path class="cls-1" d="M166.5,1h39.35L216.49,11.6v56L207.09,77l10.64,58.68H201.24L190.78,78.25h-7.27v57.44h-17Zm33,59.92V18.69l-3.55-3.55H183.51V64.42h12.41Z"/><path class="cls-1" d="M337.36,100.94,334,135.69H317L333.1,1h24.47l16.48,134.73H356.33L353,100.94Zm7.8-82.43-6.56,67.9h13.12Z"/><path class="cls-1" d="M474.18,1h38.47L523.29,11.6V71.16L512.65,81.8H491.2v53.89h-17Zm32.09,63.11V18.69l-3.55-3.55H491.2V67.62h11.52Z"/><path class="cls-1" d="M10.7,229.14V214.6h33v14.54Z"/><path class="cls-1" d="M179.2,214.24h17.91V154.5h17V289.23h-17V229.14H179.2v60.09h-17V154.5h17Z"/><path class="cls-1" d="M336.35,154.5h17V289.23h-17Z"/><path class="cls-1" d="M475.07,165.14,485.7,154.5h26.24l10.64,10.64v30.31h-17V172.23L502,168.68h-6.38l-3.54,3.55v98.92l3.54,3.55H502l3.55-3.55v-23h17v30.5l-10.64,10.63H485.7L475.07,278.6Z"/><path class="cls-2" d="M74.41,329.8V470.22L61.24,483.39H11.88V316.63H61.24ZM53.35,461V339L49,334.63h-16V465.4H49Z"/><path class="cls-2" d="M88.23,316.63h52v18H109.29v55.29h27v18h-27V465.4h31.38v18H88.23Z"/><path class="cls-2" d="M186.52,338.58l-4.38-4.39h-7.68l-4.39,4.39v46.95l4.39,4.39h20.62l13.17,13.16v67.14l-13.17,13.17H161.73l-13.17-13.17V435.34h21.07v26.11l4.39,4.39h8.77l4.39-4.39V412.3l-4.39-4.39H162.17L149,394.75V329.8l13.17-13.17h32.25l13.17,13.17v35.11H186.52Z"/><path class="cls-2" d="M220.75,316.63h21.06V483.39H220.75Z"/><path class="cls-2" d="M255.63,329.8l13.17-13.17h34.44l13.17,13.17v35.33H295.34V339L291,334.63h-9.88L276.69,339V461l4.39,4.39H291l4.38-4.39V415.37H284.81V396.5h31.6v73.72l-13.17,13.17H268.8l-13.17-13.17Z"/><path class="cls-2" d="M329.79,316.63h22.82l24.13,115.64V316.63h19.09V483.39H373L348.88,369.51V483.39H329.79Z"/><path class="cls-2" d="M410.31,316.63h52v18H431.37v55.29h27v18h-27V465.4h31.38v18H410.31Z"/><path class="cls-2" d="M473.94,316.63h48.71l13.16,13.17v69.33l-11.63,11.63,13.17,72.63H516.94L504,412.3h-9v71.09H473.94Zm40.81,74.17V338.58l-4.39-4.39H495v61h15.36Z"/><path class="cls-3" d="M4.3,10.64,14.94,0H42.77L53.4,10.64V39.18h-17V18.08l-3.55-3.54h-8l-3.54,3.54v98.57l3.54,3.54h8l3.55-3.54V79.77H27.88V64.53H53.4v59.56L42.77,134.73H14.94L4.3,124.09Z"/><path class="cls-3" d="M156.9,0h39.36l10.63,10.64v56l-9.39,9.39,10.63,58.68H191.65L181.19,77.29h-7.27v57.44h-17Zm33,59.92V17.73l-3.54-3.55H173.92V63.47h12.41Z"/><path class="cls-3" d="M327.76,100l-3.37,34.75h-17L323.51,0H348l16.49,134.73H346.73L343.36,100Zm7.8-82.43L329,85.45h13.12Z"/><path class="cls-3" d="M464.59,0h38.47l10.63,10.64V70.2L503.06,80.84H481.6v53.89h-17Zm32.08,63.11V17.73l-3.54-3.55H481.6V66.66h11.53Z"/><path class="cls-3" d="M1.11,228.18V213.64h33v14.54Z"/><path class="cls-3" d="M169.61,213.28h17.9V153.54h17V288.27h-17V228.18h-17.9v60.09h-17V153.54h17Z"/><path class="cls-3" d="M326.76,153.54h17V288.27h-17Z"/><path class="cls-3" d="M465.47,164.18l10.64-10.64h26.24L513,164.18v30.31H496V171.27l-3.54-3.55H486l-3.55,3.55v98.92l3.55,3.55h6.38l3.54-3.55V247.14h17v30.5l-10.63,10.63H476.11l-10.64-10.63Z"/><path class="cls-3" d="M62.53,328.61V469L49.37,482.2H0V315.45H49.37ZM41.47,459.82v-122l-4.39-4.39h-16V464.21h16Z"/><path class="cls-3" d="M76.35,315.45h52v18H97.42v55.29h27v18h-27v57.49h31.37v18H76.35Z"/><path class="cls-3" d="M174.65,337.39,170.26,333h-7.68l-4.39,4.39v46.95l4.39,4.39h20.63l13.16,13.17V469L183.21,482.2H149.85L136.69,469V434.15h21.06v26.11l4.39,4.39h8.78l4.39-4.39V411.11l-4.39-4.39H150.29l-13.16-13.16V328.61l13.16-13.16h32.26l13.16,13.16v35.11H174.65Z"/><path class="cls-3" d="M208.87,315.45h21.07V482.2H208.87Z"/><path class="cls-3" d="M243.76,328.61l13.16-13.16h34.45l13.16,13.16v35.33H283.47V337.83l-4.39-4.39h-9.87l-4.39,4.39v122l4.39,4.39h9.87l4.39-4.39V414.18H272.94V395.31h31.59V469L291.37,482.2H256.92L243.76,469Z"/><path class="cls-3" d="M317.91,315.45h22.82l24.14,115.63V315.45H384V482.2H361.14L337,368.33V482.2H317.91Z"/><path class="cls-3" d="M398.43,315.45h52v18H419.5v55.29h27v18h-27v57.49h31.37v18H398.43Z"/><path class="cls-3" d="M462.06,315.45h48.71l13.16,13.16V398l-11.62,11.63,13.16,72.62h-20.4l-12.95-71.09h-9V482.2H462.06Zm40.81,74.16V337.39L498.48,333H483.12v61h15.36Z"/></g></g></svg>